<?xml version="1.0" encoding="UTF-8"?><svg id="Layer_1" xmlns="http://www.w3.org/2000/svg" xmlns:xlink="http://www.w3.org/1999/xlink" viewBox="0 0 200 33.1"><defs><style>.cls-1{fill:#19a7d8;}.cls-1,.cls-2{font-family:Fagrak, Fagrak;font-size:30.2px;}.cls-2{fill:#12e359;}.cls-3{fill:url(#linear-gradient);}</style><linearGradient id="linear-gradient" x1="120.24" y1="16.55" x2="160.78" y2="16.55" gradientUnits="userSpaceOnUse"><stop offset="0" stop-color="#19a7d8"/><stop offset="0.1" stop-color="#18adcb"/><stop offset="0.2" stop-color="#17b9b2"/><stop offset="0.3" stop-color="#16c599"/><stop offset="0.5" stop-color="#14d17f"/><stop offset="0.7" stop-color="#13dd66"/><stop offset="1" stop-color="#12e359"/></linearGradient></defs><text class="cls-1" transform="translate(0 25.67) scale(1.19 1)"><tspan x="0" y="0">Nervou</tspan></text><text class="cls-2" transform="translate(140.44 25.67) scale(1.19 1)"><tspan x="0" y="0">ync</tspan></text><path class="cls-3" d="M132.91,10.69v-2.23h-5.19v2.6l11.27,3.99v7.64c0,1.66-1.58,2.99-3.57,2.99h-10.15c-1.98,0-3.6-1.36-3.6-3.02v-4.29h6.09v2.2h5.19v-2.57l-11.27-4.02V6.4c0-1.66,1.62-3.02,3.6-3.02h10.12c1.98,0,3.6,1.36,3.6,3.02v4.29h-6.09Z"/></svg>