<?xml version="1.0" encoding="UTF-8"?>
<svg id="LogoSVG" data-name="LogoSVG" xmlns="http://www.w3.org/2000/svg" xmlns:xlink="http://www.w3.org/1999/xlink" viewBox="0 0 200 26">
    <defs>
        <style>
            .blue {
            fill: #5cbb52;
            }
            .green {
            fill: #19a7d8;
            }
            .gradient {
            fill: url(#linear-gradient);
            }
        </style>
        <linearGradient id="linear-gradient" x1="80" y1="13" x2="140" y2="13" gradientUnits="userSpaceOnUse">
            <stop offset="0" stop-color="#19a7d8"/>
            <stop offset="1" stop-color="#76b043"/>
        </linearGradient>
    </defs>
    <g>
        <path class="green" d="M5.43,1.02l6.37,.96c.44,.07,.66,.21,.66,.43s-.18,.36-.55,.41c-.26,.07-.43,.14-.51,.23-1.04,.66-2.04,1.18-3.01,1.55-.78,.32-1.59,.61-2.42,.86,.81,.2,1.43,.42,1.88,.63,.39,.2,.7,.42,.94,.63,.18-.29,.35-.55,.51-.79,.42-.54,.69-1.1,.82-1.68l5.86,2.26c.52-1.27,.95-2.58,1.29-3.94,.13-.71,.2-1.24,.2-1.57l7.77,1.17c.57,.08,.86,.27,.86,.56,0,.24-.25,.39-.74,.46-.34,.05-.56,.13-.66,.23-.83,1.02-1.65,1.9-2.46,2.67l1.84,.79h1.99c.39-1.59,.65-2.6,.78-3.02,.18-.59,.29-1.27,.31-2.03l6.52,.71c.89,.14,1.33,.34,1.33,.61,0,.22-.21,.36-.62,.43-.34,.07-.56,.16-.66,.28-1.28,.91-2.98,1.92-5.12,3.02h3.12l2.66-2.03,3.16,1.68c.49,.22,.74,.42,.74,.58,0,.34-.27,.51-.82,.51h-4.65v3.48l1.56-1.17,2.77,1.42c.44,.22,.66,.4,.66,.53,0,.32-.22,.48-.66,.48h-4.34v3.6l1.56-1.14,2.77,1.42c.44,.2,.66,.36,.66,.48,0,.36-.22,.53-.66,.53h-4.34v4.34l1.72-1.29,3.16,1.65c.49,.24,.74,.43,.74,.58,0,.32-.26,.48-.78,.48h-13.79v1.04c0,.24-.34,.4-1.02,.48-2.97,.22-4.54,.33-4.73,.33-.65,0-.98-.34-.98-1.02v-3.12c-.47,.32-1.04,.48-1.72,.48-.52,0-1.03-.2-1.52-.61-.44-.34-.7-1.12-.78-2.34-.05-.42-.16-.81-.31-1.17v6.96c0,.24-.34,.4-1.02,.48-2.92,.22-4.41,.33-4.49,.33-.7,0-1.05-.34-1.05-1.02v-2.89c-.13,.12-.25,.22-.35,.3-1.07,.86-2.37,1.59-3.91,2.18l-.31-.23c.31-.98,.57-2.04,.78-3.17,.21-1.1,.35-2.09,.43-2.97,.03-.49,.05-.88,.08-1.17-.1-.08-.2-.21-.27-.38l-1.6-4.19c1.17,.15,2.37,.23,3.59,.23h.47c.49-.59,.92-1.14,1.29-1.65h-.2c-.99,0-1.65-.58-1.99-1.73-.5-1.25-1.39-2.29-2.7-3.12l.43-.33c.7,.12,1.34,.23,1.91,.33,.31-.49,.57-.98,.78-1.47,.26-.58,.48-1.19,.66-1.85,.05-.34,.08-.58,.08-.74Zm-1.33,14.9l2.15,.36v-1.37c-.52,.15-.99,.29-1.41,.41-.16,.08-.35,.25-.59,.51-.03,.05-.08,.08-.16,.1Zm10.12-5.74c.47-.83,.89-1.67,1.25-2.51-.23,.05-.39,.09-.47,.13-2.24,1.34-4.41,2.55-6.52,3.63,1.25-.08,2.76-.17,4.53-.25-.21-.41-.5-.79-.86-1.14l.31-.28c.65,.14,1.24,.28,1.76,.43Zm2.93,7.44v-3.2c-.6,.41-1.32,.61-2.15,.61-.36,0-.72-.17-1.05-.51-.29-.27-.46-.89-.51-1.85-.03-.15-.05-.3-.08-.46-.18,.08-.36,.16-.55,.23v2.79c2.03,.71,3.37,1.41,4.02,2.08,.13,.1,.23,.2,.31,.3Zm0-6.17v-1.57c-.44,.3-.9,.58-1.37,.84,.6,.24,1.05,.47,1.37,.71v.03Zm8.79,.23V7.62h-2.07v4.06h2.07Zm0,4.85v-4.16h-2.07v4.16h2.07Zm-2.07,5.81h2.07v-5.08h-2.07v5.08Z"/>
        <path class="green" d="M41.56,13.1c1.02,.08,2.03,.14,3.05,.18l2.38-1.5,4.49,1.98c.65,.24,.98,.45,.98,.64,0,.17-.14,.35-.43,.53-.18,.07-.29,.2-.31,.38v3.68c0,.53,.62,.98,1.88,1.37,1.41,.29,5.43,.43,12.07,.43,2.53,0,6.84-.16,12.93-.48v.41c-1.33,1.22-2.06,2.54-2.19,3.96h-8.36c-5.47,0-9.48-.16-12.03-.48-1.67-.29-3.33-1.16-5-2.62-.16-.17-.35-.25-.59-.25-.21,0-.43,.08-.66,.25-1.22,1.05-2.59,2-4.1,2.84-.29,.32-.72,.51-1.29,.56-.52,0-.87-.27-1.05-.81l-2.07-4.29,1.88-.08c1.04-.05,1.56-.19,1.56-.41v-5.36c-.86,.02-1.71,.08-2.54,.18l-.59-1.12Zm.9-6.8c3.2,0,5.29,.25,6.25,.76,1.04,.49,1.56,1.11,1.56,1.85,0,.63-.33,1.2-.98,1.73-.81,.47-1.67,.71-2.58,.71-.7,0-1.29-.2-1.76-.61-.39-.37-.62-.82-.7-1.35,0-.44-.17-.87-.51-1.29-.23-.39-.77-.83-1.6-1.32l.31-.48Zm1.09-4.9c3.33,0,5.51,.21,6.52,.63,1.09,.39,1.64,.89,1.64,1.5s-.35,1.2-1.05,1.73c-.76,.49-1.6,.74-2.54,.74-.73,0-1.35-.19-1.88-.56-.44-.32-.7-.73-.78-1.22,0-.39-.17-.76-.51-1.12-.23-.35-.79-.74-1.68-1.17l.27-.53Zm31.76-.1l2.77,1.45c.42,.2,.62,.37,.62,.51,0,.32-.2,.48-.59,.48h-6.13v.63l4.3,1.65c.49,.24,.74,.42,.74,.56,0,.24-.14,.43-.43,.58-.26,.1-.43,.22-.51,.36v3.15c0,.25-.35,.43-1.05,.53-.31,.02-.61,.04-.9,.08l3.59,1.42c.57,.22,.86,.42,.86,.58,0,.19-.17,.35-.51,.48-.23,.12-.38,.27-.43,.46v2.74c0,.98-.82,1.79-2.46,2.41-1.3,.46-2.72,.74-4.26,.84-.26-1.1-1.09-1.81-2.5-2.13v-.43h1.84c.44,0,.66-.13,.66-.38v-.53c-.44,.22-.91,.33-1.41,.33-.18,0-.36-.11-.55-.33-.1-.12-.18-.38-.23-.79-3.31,1.22-5.51,2-6.6,2.34-.36,.47-.72,.71-1.05,.71s-.6-.17-.78-.51l-1.29-3.17c.62,0,1.52-.03,2.7-.08v-2.06h-3.01v6.12c0,.24-.29,.39-.86,.46-2.58,.24-3.96,.36-4.14,.36-.6,0-.9-.3-.9-.91v-6.5c0-.54-.12-1.09-.35-1.65l1.6,.36c-.03-.08-.04-.17-.04-.25V5.99c0-.61-.1-1.22-.31-1.83l2.54,.53v-.96h-.16c-1.09,0-2.19,.08-3.28,.23l-.66-1.12c1.3,.14,2.62,.2,3.95,.2h.16v-.63c0-.54-.1-1.07-.31-1.6l6.6,.28c.89,.03,1.33,.17,1.33,.41,0,.25-.17,.44-.51,.56-.29,.08-.47,.2-.55,.36v.63h2.46v-.53c0-.52-.09-1.06-.27-1.6l6.56,.33c.94,.03,1.41,.19,1.41,.48,0,.2-.17,.36-.51,.48-.23,.05-.39,.15-.47,.3v.53h.98l2.34-1.75Zm-13.59,11.2v-1.35h-1.29v.1c0,.25-.31,.42-.94,.51-1.09,.08-1.98,.15-2.66,.2l2.62,.53h2.27Zm6.88-6.73l1.21-.76c-2.21,.19-3.4,.28-3.55,.28-.65,0-.98-.34-.98-1.02v-.53h-2.46v1.02c0,.25-.34,.42-1.02,.51-.89,.07-1.63,.12-2.23,.15l1.68,.36h7.34Zm-8.16,2.34h1.29v-1.6h-1.29v1.6Zm0,2.36h1.29v-1.65h-1.29v1.65Zm7.54-3.96v1.6h1.05v-1.6h-1.05Zm0,2.31v1.65h1.05v-1.65h-1.05Zm2.5,3.68l1.72-1.04c-1.15,.08-1.78,.13-1.91,.13-.52,0-.87-.14-1.05-.43h-1.25v1.35h2.5Zm-1.88,2.49c-.1-.37-.26-.69-.47-.96l.16-.2c1.22,.24,2.11,.47,2.66,.69v-1.32h-2.97v1.83c.21,0,.42,0,.62-.03Z"/>
    </g>
    <path class="gradient" d="M111.25,.61l3.16,1.65c.49,.22,.74,.42,.74,.58,0,.32-.26,.48-.78,.48h-10.94v2.23h6.64l2.23-1.7,5.43,2.64c.47,.27,.7,.58,.7,.91-.13,.25-.53,.39-1.21,.41-.68,.03-1.42,.06-2.23,.08l-4.73,1.65-.74-.3,.12-.43h-6.21v2.06h2.81l2.03-1.42,2.38,1.19c.39,.17,.59,.3,.59,.41,0,.36-.17,.53-.51,.53h-1.64l3.05,1.6c.55,.27,.82,.48,.82,.63,0,.32-.27,.48-.82,.48h-21.05c-1.38,0-2.75,.07-4.1,.2l-.59-1.12c1.54,.15,3.1,.23,4.69,.23h14.84l2.54-2.03h-5.04v.58c0,.29-.38,.47-1.13,.56-3.26,.25-4.92,.38-5,.38-.81,0-1.21-.37-1.21-1.12V6.3h-7.54v.1c-.05,.71-.18,1.32-.39,1.83h3.4l1.72-1.12,1.99,.96c.31,.15,.47,.27,.47,.36,0,.32-.16,.48-.47,.48h-7.58c-.08,.12-.2,.23-.35,.33-.57,.59-1.26,.92-2.07,.99-1.15,0-2.04-.18-2.7-.53-.68-.46-1.02-.95-1.02-1.47,0-.66,.82-1.24,2.46-1.75,1.54-.49,2.44-1.23,2.7-2.21h.74c.44,.47,.76,.91,.94,1.29h7.7V3.33h-5.98c-1.22,0-2.46,.07-3.71,.2l-.66-1.12c1.48,.14,2.94,.2,4.38,.2h18.48l2.66-2.01Zm2.34,13.41l3.67,1.96c.57,.27,.86,.49,.86,.66,0,.36-.27,.53-.82,.53h-15.86l-5.35,2.97c3.05-.03,6.54-.06,10.47-.08-.78-.66-1.73-1.25-2.85-1.78l.51-.43c4.66,.56,7.73,1.14,9.22,1.75,1.43,.61,2.15,1.29,2.15,2.03s-.31,1.41-.94,2.03c-.88,.61-1.81,.91-2.77,.91-1.67,0-2.81-.75-3.44-2.26-.21-.42-.46-.81-.74-1.17-7.03,1.35-13.36,2.5-18.98,3.43-.03,.08-.08,.2-.16,.36-.16,.29-.35,.43-.59,.43-.42,0-.85-.27-1.29-.81l-3.4-4.34c1.28,0,2.86,0,4.77-.03,.73,0,1.52,0,2.38-.03l1.17-3h-4.45c-1.43,0-2.88,.07-4.34,.2l-.66-1.12c1.69,.12,3.36,.18,5,.18h23.44l3.01-2.41Zm-20.47-4.27l2.15,1.04c.31,.15,.47,.27,.47,.36,0,.36-.16,.53-.47,.53h-5.9c-.78,0-1.58,.07-2.38,.2l-.59-1.12c.99,.12,1.98,.18,2.97,.18h2.03l1.72-1.19Zm10.31-1.65h2.3l1.91-1.32,2.3,1.14,.51-1.62h-7.03v1.8Z"/>
    <g>
        <path class="blue" d="M153.71,.61l3.44,1.8c.55,.25,.82,.47,.82,.63,0,.32-.27,.48-.82,.48h-20.08l-1.76,5.28h8.55l3.59-2.51,5.39,2.46c.39,.22,.59,.45,.59,.69s-.26,.42-.78,.53c-.42,.08-.68,.21-.78,.38l-3.05,13h1.02l3.44-2.84,4.14,2.26c.68,.3,1.02,.57,1.02,.79,0,.34-.33,.51-.98,.51h-30.16c-1.69,0-3.41,.06-5.16,.18l-.59-1.12c1.93,.15,3.84,.23,5.74,.23h13.59l1.33-5.38h-9.92l-.59,1.8c-.31,.49-.85,.74-1.6,.74-.08,0-1.78-.12-5.12-.36-.65-.15-.98-.41-.98-.76l5.39-15.87h-2.85c-1.35,0-2.72,.07-4.1,.2l-.62-1.12c1.59,.15,3.16,.23,4.73,.23h24.38l2.77-2.23Zm-21.13,16.66h9.84l1.99-7.72h-9.34l-2.5,7.72Z"/>
        <path class="blue" d="M172.97,.81l3.28,1.7c.49,.27,.74,.48,.74,.63,0,.32-.25,.48-.74,.48h-1.41V24.48c0,.2-.3,.34-.9,.41-2.58,.19-3.89,.28-3.95,.28-.65,0-.98-.27-.98-.81v-5.61l-4.49,2.89c-.18,.15-.31,.3-.39,.43-.21,.25-.46,.38-.74,.38-.26,0-.5-.22-.7-.66l-1.45-4.04h1.56V3.76c-.29,.05-.56,.08-.82,.1l-.59-1.12c1.48,.14,2.99,.2,4.53,.2h4.18l2.85-2.13Zm-3.95,6.8V3.63h-1.05v3.99h1.05Zm0,4.65v-3.94h-1.05v3.94h1.05Zm-1.05,4.95c.34-.05,.69-.1,1.05-.15v-4.06h-1.05v4.21ZM178.28,.92l5.59,1.24c.55,.1,.82,.25,.82,.46,0,.17-.22,.26-.66,.28-.31,.03-.51,.08-.59,.15l-4.38,2.23c.39,.1,.69,.19,.9,.28,.29,.12,.52,.25,.7,.38,.05-.1,.12-.19,.2-.28,.34-.46,.57-.92,.7-1.4l4.69,1.78c-.21-.81-.73-1.51-1.56-2.08l.31-.33c.94,.19,1.74,.36,2.42,.51,.49-1.07,.82-1.78,.98-2.13,.18-.44,.29-.8,.31-1.09l5.9,1.32c.55,.1,.82,.27,.82,.51,0,.19-.2,.29-.59,.3-.31,.05-.52,.12-.62,.2l-4.22,1.68c.1,.05,.2,.09,.27,.13,.75,.36,1.13,.77,1.13,1.24v.08c.31-.42,.57-.79,.78-1.09,.39-.47,.65-.95,.78-1.42l5.66,2.13c.26,.1,.39,.24,.39,.41,0,.19-.2,.3-.59,.33-.55,.07-.92,.15-1.13,.25-.78,.44-1.58,.86-2.38,1.27,1.43,.37,2.43,.78,3.01,1.22,.73,.58,1.09,1.2,1.09,1.88,0,.52-.22,1.02-.66,1.5-.62,.42-1.28,.63-1.95,.63-.76,0-1.26-.63-1.52-1.9-.08-.3-.17-.58-.27-.84l-5.59,2.54c-.13,.14-.23,.28-.31,.43l3.63,.18c.83,.05,1.25,.19,1.25,.41,0,.19-.16,.34-.47,.46-.23,.05-.39,.14-.47,.28v3.73h1.21v-3.25c0-.32-.05-.66-.16-1.02l4.06,.2c.55,.02,.82,.09,.82,.23s-.1,.24-.31,.3c-.16,.03-.26,.09-.31,.18v5.48c0,.17-.22,.28-.66,.33-1.75,.14-2.67,.2-2.77,.2-.44,0-.66-.21-.66-.63v-1.29h-1.21v4.85c0,.25-.3,.42-.9,.51-2.58,.2-3.95,.3-4.1,.3-.62,0-.94-.3-.94-.91V15.03c0-.2-.01-.41-.04-.63-.08,.05-.17,.09-.27,.13-.26,.08-.42,.19-.47,.3v4.77c0,.91-.6,1.78-1.8,2.59-1.43,1-4.17,1.99-8.2,2.97l-.35-.18c1.72-.8,2.89-1.6,3.52-2.41,.78-.75,1.17-1.73,1.17-2.97v-.1h-.74v1.12c0,.14-.21,.23-.62,.28-1.67,.14-2.55,.2-2.66,.2-.44,0-.66-.16-.66-.48v-5.38c0-.3-.05-.62-.16-.94l1.05,.05c-.03-.05-.07-.11-.12-.18l-1.25-3.5c.78,0,1.33,0,1.64-.03,.13,0,.26,0,.39-.03,.57-.69,1.07-1.33,1.48-1.9-.1,.02-.22,.03-.35,.03-.7,0-1.17-.45-1.41-1.35-.31-.98-.94-1.79-1.88-2.41l.27-.33c.57,.07,1.08,.14,1.52,.2,.6-1.39,.99-2.3,1.17-2.74,.16-.47,.26-.87,.31-1.19Zm8.32,12.92c-.03-.08-.04-.16-.04-.23l1.05,.05c-.05-.05-.1-.13-.16-.23l-.43-1.17-.23,.3c-.62,.41-1.28,.61-1.95,.61s-1.09-.55-1.33-1.65c-.03-.15-.07-.29-.12-.41l-5.43,2.89c-.16,.14-.26,.26-.31,.38l1.48,.08c.57,.03,.86,.12,.86,.25,0,.15-.08,.27-.23,.36-.13,.05-.21,.13-.23,.23v3.45h.74v-3.83c0-.58-.04-1.09-.12-1.55l5.9,.36c.23,.02,.42,.05,.55,.1Zm-3.55-3.58c-.18-.34-.4-.66-.66-.96-.81,.41-1.63,.8-2.46,1.19,1.02-.07,2.06-.14,3.12-.23Zm3.83-.33h1.6c.6-.69,1.12-1.33,1.56-1.9-.5,.27-1.08,.41-1.76,.41-.47,0-.91-.15-1.33-.46-.21-.14-.37-.36-.47-.69-.18,.05-.31,.09-.39,.13-.78,.41-1.55,.8-2.3,1.19,1.25,.3,2.13,.63,2.66,.96,.16,.12,.3,.24,.43,.36Zm7.34-.08c-.21-.32-.43-.63-.66-.94-.68,.36-1.35,.69-2.03,.99,.86-.02,1.76-.03,2.7-.05Z"/>
    </g>
</svg>