<?xml version="1.0" encoding="UTF-8"?>
<svg id="LogoSVG" data-name="LogoSVG" xmlns="http://www.w3.org/2000/svg" viewBox="0 0 200 26">
    <defs>
        <style>
            .green {
            fill: #5cbb52;
            }
            .blue {
            fill: #19a7d8;
            }
            .gradient {
            fill: url(#linear-gradient);
            }
        </style>
        <linearGradient id="linear-gradient" x1="80" y1="13.05" x2="144" y2="13.05" gradientUnits="userSpaceOnUse">
            <stop offset="0" stop-color="#19a7d8"/>
            <stop offset=".11" stop-color="#26a8c2"/>
            <stop offset=".41" stop-color="#48ab8c"/>
            <stop offset=".67" stop-color="#61ad64"/>
            <stop offset=".87" stop-color="#70af4b"/>
            <stop offset="1" stop-color="#76b043"/>
        </linearGradient>
    </defs>
    <g>
        <g>
            <path class="blue" d="M4.6,10.71c-.72,.08-1.33,.06-1.82-.05-.49-.11-.87-.28-1.14-.51-.27-.23-.4-.5-.4-.8s.13-.61,.4-.93L8.4,.44h6.16L7.32,8.56c-.08,.13-.07,.24,.02,.33,.09,.1,.26,.13,.5,.1l.92-.07,2.64-2.69h6.16L8.28,15.9c-.13,.14-.12,.28,.04,.41,.16,.13,.39,.17,.68,.12l8-1.33v1.33l-11.44,1.88c-.8,.13-1.5,.14-2.1,.04s-1.07-.29-1.4-.55c-.33-.26-.51-.58-.52-.94-.01-.37,.17-.74,.54-1.12l5.2-5.29-2.68,.26ZM1.32,21.41l15.84-2.14v1.33L1.32,22.79v-1.38ZM34.8,3.78v4.98h3.96v1.33h-3.96v4.98h3.96v1.33h-3.96v4.98h3.96v1.33H18.6V9.52h-2.12L20.92,.44h6.32l-.96,2h3.08l-.8-2h6.32l.8,2h3.08v1.33h-3.96Zm-6.32,0h-2.88l-2.44,4.98h5.32V3.78Zm0,6.31h-3.56v4.98h3.56v-4.98Zm0,6.31h-3.56v4.98h3.56v-4.98Z"/>
            <path class="blue" d="M50.96,19.5c0,.33-.15,.64-.46,.91-.31,.27-.73,.47-1.26,.6l-8,1.76v-1.55l3.04-.62c.35-.08,.52-.22,.52-.43V9.73c0-.16-.09-.3-.28-.42-.19-.12-.43-.18-.72-.18h-2.56v-1.29h7.08c.72,0,1.34,.15,1.86,.45,.52,.3,.78,.68,.78,1.12v10.08Zm-6.16-13.79L41.28,.37h6.12l3.48,5.34h-6.08Zm33.8,15.37v1.31h-27.88l-1.2-1.31h29.08Zm-18.84-3.31c-.08,.38-.33,.71-.74,.98-.41,.27-.93,.44-1.54,.52l-5.92,.86v-1.33l1.2-.19c.32-.05,.51-.17,.56-.36l3.92-15.99h-5.24V.92h25.96v1.33h-14.4l-1.12,4.6h11.84c.69,0,1.27,.14,1.74,.42,.47,.28,.7,.62,.7,1.04v10.32c0,.41-.23,.76-.7,1.04-.47,.28-1.05,.42-1.74,.42h-9.4l-1.2-1.33h6.12c.16,0,.3-.04,.42-.11,.12-.07,.18-.16,.18-.25V8.54c0-.1-.06-.18-.18-.25-.12-.07-.26-.11-.42-.11h-7.68l-2.36,9.58Z"/>
        </g>
        <g>
            <path class="blue" d="M4.6,10.71c-.72,.08-1.33,.06-1.82-.05-.49-.11-.87-.28-1.14-.51-.27-.23-.4-.5-.4-.8s.13-.61,.4-.93L8.4,.44h6.16L7.32,8.56c-.08,.13-.07,.24,.02,.33,.09,.1,.26,.13,.5,.1l.92-.07,2.64-2.69h6.16L8.28,15.9c-.13,.14-.12,.28,.04,.41,.16,.13,.39,.17,.68,.12l8-1.33v1.33l-11.44,1.88c-.8,.13-1.5,.14-2.1,.04s-1.07-.29-1.4-.55c-.33-.26-.51-.58-.52-.94-.01-.37,.17-.74,.54-1.12l5.2-5.29-2.68,.26ZM1.32,21.41l15.84-2.14v1.33L1.32,22.79v-1.38ZM34.8,3.78v4.98h3.96v1.33h-3.96v4.98h3.96v1.33h-3.96v4.98h3.96v1.33H18.6V9.52h-2.12L20.92,.44h6.32l-.96,2h3.08l-.8-2h6.32l.8,2h3.08v1.33h-3.96Zm-6.32,0h-2.88l-2.44,4.98h5.32V3.78Zm0,6.31h-3.56v4.98h3.56v-4.98Zm0,6.31h-3.56v4.98h3.56v-4.98Z"/>
            <path class="blue" d="M50.96,19.5c0,.33-.15,.64-.46,.91-.31,.27-.73,.47-1.26,.6l-8,1.76v-1.55l3.04-.62c.35-.08,.52-.22,.52-.43V9.73c0-.16-.09-.3-.28-.42-.19-.12-.43-.18-.72-.18h-2.56v-1.29h7.08c.72,0,1.34,.15,1.86,.45,.52,.3,.78,.68,.78,1.12v10.08Zm-6.16-13.79L41.28,.37h6.12l3.48,5.34h-6.08Zm33.8,15.37v1.31h-27.88l-1.2-1.31h29.08Zm-18.84-3.31c-.08,.38-.33,.71-.74,.98-.41,.27-.93,.44-1.54,.52l-5.92,.86v-1.33l1.2-.19c.32-.05,.51-.17,.56-.36l3.92-15.99h-5.24V.92h25.96v1.33h-14.4l-1.12,4.6h11.84c.69,0,1.27,.14,1.74,.42,.47,.28,.7,.62,.7,1.04v10.32c0,.41-.23,.76-.7,1.04-.47,.28-1.05,.42-1.74,.42h-9.4l-1.2-1.33h6.12c.16,0,.3-.04,.42-.11,.12-.07,.18-.16,.18-.25V8.54c0-.1-.06-.18-.18-.25-.12-.07-.26-.11-.42-.11h-7.68l-2.36,9.58Z"/>
        </g>
    </g>
    <g>
        <path class="green" d="M158.76,21.09v1.33h-37.52v-1.33h26.16l.68-4.88h-20.92c-.77,0-1.41-.16-1.9-.46s-.7-.7-.62-1.18l2.04-12.32h-4.64V.91h35.92v1.33h-24.96l-.8,4.98h20.72c.77,0,1.39,.15,1.86,.46,.47,.31,.67,.69,.62,1.16l-1.68,12.25h5.04Zm-10.52-6.22l.84-5.91c.03-.11-.03-.21-.16-.29-.13-.08-.29-.12-.48-.12h-16.48l-.96,5.91c-.03,.11,.02,.21,.14,.29s.27,.12,.46,.12h16.64Z"/>
        <path class="green" d="M177.2,17.3l1.48-.12v1.33l-1.48,.12v4.24h-5.96v-3.74l-10,.81v-1.33l1.48-.12V2.08h-1.28V.75h17.04v1.33h-1.28v15.22Zm-8.56-15.22V6.46h2.6V2.08h-2.6Zm0,10.1h2.6V7.8h-2.6v4.38Zm2.6,5.62v-4.29h-2.6v4.5l2.6-.21Zm27.52,3.74v1.33l-5.64-.55c-.53-.05-1.03-.16-1.5-.35-.47-.18-.75-.42-.86-.7l-1.52-3.88-2.04,4.03c-.13,.24-.41,.43-.82,.58-.41,.15-.85,.25-1.3,.3l-5.88,.57v-1.33l1.28-.14c.13-.02,.27-.05,.42-.09,.15-.05,.25-.11,.3-.19l3.96-8.17h-5.96v-1.33h6.32V5.58h-5.92v-1.33h2.16l-1.72-3.72h5.92l1.72,3.72h2.04l1.72-3.72h5.92l-1.72,3.72h2.28v1.33h-6.08v6.03h6.48v1.33h-6.88l-.72,1.48h3.64l2.56,6.67c.05,.1,.16,.17,.32,.21s.32,.09,.48,.12l1.04,.12Z"/>
    </g>
    <path class="gradient" d="M112.44,22.88l-.48-1.12-26.4,.91c-.53,.02-.98-.04-1.34-.15-.36-.12-.64-.28-.84-.49-.2-.21-.31-.45-.34-.71-.03-.27,.03-.55,.16-.83l4.32-9.1h-5.48v-1.33h35.92v1.33h-24.12l-4.44,9.31c-.05,.13-.04,.23,.04,.32,.08,.09,.23,.12,.44,.11l21.52-.69-3.08-7.15h6.32l4.12,9.6h-6.32Zm4.12-20.66h-33.08V.89h33.08v1.33Z"/>
</svg>