<?xml version="1.0" encoding="UTF-8"?><svg id="Layer_1" xmlns="http://www.w3.org/2000/svg" xmlns:xlink="http://www.w3.org/1999/xlink" viewBox="0 0 200 26"><defs><style>.cls-1{fill:#12e359;font-size:26px;}.cls-1,.cls-2{font-family:DFMincho-SU-WIN-RKSJ-H, DFMincho-SU;}.cls-2{fill:#19a7d8;font-size:26px;}.cls-3{fill:url(#linear-gradient);}</style><linearGradient id="linear-gradient" x1="80" y1="13" x2="142.59" y2="13" gradientUnits="userSpaceOnUse"><stop offset="0" stop-color="#19a7d8"/><stop offset="0.1" stop-color="#18adcb"/><stop offset="0.2" stop-color="#17b9b2"/><stop offset="0.3" stop-color="#16c599"/><stop offset="0.5" stop-color="#14d17f"/><stop offset="0.7" stop-color="#13dd66"/><stop offset="1" stop-color="#12e359"/></linearGradient></defs><text class="cls-2" transform="translate(0 22.34) scale(1.54 1)"><tspan x="0" y="0">維邁</tspan></text><path class="cls-3" d="M111.25,.61l3.16,1.65c.49,.22,.74,.42,.74,.58,0,.32-.26,.48-.78,.48h-10.94v2.23h6.64l2.23-1.7,5.43,2.64c.47,.27,.7,.58,.7,.91-.13,.25-.53,.39-1.21,.41-.68,.03-1.42,.06-2.23,.08l-4.73,1.65-.74-.3,.12-.43h-6.21v2.06h2.81l2.03-1.42,2.38,1.19c.39,.17,.59,.3,.59,.41,0,.36-.17,.53-.51,.53h-1.64l3.05,1.6c.55,.27,.82,.48,.82,.63,0,.32-.27,.48-.82,.48h-21.06c-1.38,0-2.75,.07-4.1,.2l-.59-1.12c1.54,.15,3.1,.23,4.69,.23h14.84l2.54-2.03h-5.04v.58c0,.29-.38,.47-1.13,.56-3.26,.25-4.92,.38-5,.38-.81,0-1.21-.37-1.21-1.12V6.3h-7.54v.1c-.05,.71-.18,1.32-.39,1.83h3.4l1.72-1.12,1.99,.96c.31,.15,.47,.27,.47,.36,0,.32-.16,.48-.47,.48h-7.58c-.08,.12-.2,.23-.35,.33-.57,.59-1.26,.92-2.07,.99-1.15,0-2.04-.18-2.7-.53-.68-.46-1.02-.95-1.02-1.47,0-.66,.82-1.24,2.46-1.75,1.54-.49,2.44-1.23,2.7-2.21h.74c.44,.47,.76,.91,.94,1.29h7.7V3.33h-5.98c-1.22,0-2.46,.07-3.71,.2l-.66-1.12c1.48,.14,2.94,.2,4.38,.2h18.48l2.66-2.01Zm2.34,13.41l3.67,1.96c.57,.27,.86,.49,.86,.66,0,.36-.27,.53-.82,.53h-15.86l-5.35,2.97c3.05-.03,6.54-.06,10.47-.08-.78-.66-1.73-1.25-2.85-1.78l.51-.43c4.66,.56,7.73,1.14,9.22,1.75,1.43,.61,2.15,1.29,2.15,2.03s-.31,1.41-.94,2.03c-.88,.61-1.81,.91-2.77,.91-1.67,0-2.81-.75-3.44-2.26-.21-.42-.46-.81-.74-1.17-7.03,1.35-13.36,2.5-18.98,3.43-.03,.08-.08,.2-.16,.36-.16,.29-.35,.43-.59,.43-.42,0-.85-.27-1.29-.81l-3.4-4.34c1.28,0,2.86,0,4.77-.03,.73,0,1.52,0,2.38-.03l1.17-3h-4.45c-1.43,0-2.88,.07-4.34,.2l-.66-1.12c1.69,.12,3.36,.18,5,.18h23.44l3.01-2.41Zm-20.47-4.27l2.15,1.04c.31,.15,.47,.27,.47,.36,0,.36-.16,.53-.47,.53h-5.9c-.78,0-1.58,.07-2.38,.2l-.59-1.12c.99,.12,1.98,.18,2.97,.18h2.03l1.72-1.19Zm10.31-1.65h2.3l1.91-1.32,2.3,1.14,.51-1.62h-7.03v1.8Z"/><text class="cls-1" transform="translate(120 22.34) scale(1.54 1)"><tspan x="0" y="0">互聯</tspan></text></svg>