<?xml version="1.0" encoding="UTF-8"?>
<svg id="LogoSVG" data-name="LogoSVG" xmlns="http://www.w3.org/2000/svg" viewBox="0 0 200 33.1">
    <defs>
        <style>
            .green {
            fill: #5cbb52;
            }
            .blue {
            fill: #19a7d8;
            }
            .gradient {
            fill: url(#linear-gradient);
            }
        </style>
        <linearGradient id="linear-gradient" x1="120.24" y1="16.55" x2="160.78" y2="16.55" gradientUnits="userSpaceOnUse">
            <stop offset="0" stop-color="#19a7d8"/>
            <stop offset="1" stop-color="#5dbb52"/>
        </linearGradient>
    </defs>
    <g>
        <path class="blue" d="M18.76,3.38V25.67h-6.05v-9.63c0-1.09-.5-2.11-1.4-2.87l-3.82-3.23v15.73H1.44V3.38H7.49l5.22,4.35V3.38h6.05Z"/>
        <path class="blue" d="M27.69,16.7v3.87h5.22v-2.23h6.05v7.31h-13.72c-1.98,0-3.6-1.36-3.6-3.02V3.38h13.72c1.98,0,3.6,1.33,3.6,3.02v7.28c0,1.66-1.62,3.02-3.6,3.02h-7.67Zm0-5.1h5.22v-3.14h-5.22v3.14Z"/>
        <path class="blue" d="M56,14.56l3.2,11.11h-6.09l-2.52-8.76c-.65,.12-1.3,.18-1.98,.18h-.68v8.58h-6.09V3.42h13.76c1.98,0,3.6,1.33,3.6,3.02v1.75c0,2.51-1.22,4.74-3.2,6.37Zm-6.99-2.57c2.27,0,4.11-1.57,4.11-3.47v-.03h-5.19v3.5h1.08Z"/>
        <path class="blue" d="M78.4,16.79c0,4.89-4.72,8.88-10.55,8.88h-5.76V3.38h6.09V20.57h.04c2.3,0,4.14-1.54,4.14-3.44V3.38h6.05v13.41Z"/>
        <path class="blue" d="M98.6,6.4V22.65c0,1.66-1.62,3.02-3.6,3.02h-10.16c-1.98,0-3.56-1.36-3.56-3.02V6.4c0-1.66,1.58-3.02,3.56-3.02h10.16c1.98,0,3.6,1.36,3.6,3.02Zm-6.05,2.08h-5.22v12.08h5.22V8.49Z"/>
        <path class="blue" d="M118.8,3.38V22.65c0,1.66-1.62,3.02-3.6,3.02h-10.15c-1.98,0-3.57-1.36-3.57-3.02V3.38h6.05V20.57h5.19V3.38h6.09Z"/>
    </g>
    <g>
        <path class="green" d="M158.15,22.65c0,1.66-1.58,3.02-3.57,3.02h-9.72v-5.1h7.24v-3.5c-5.69-.15-10.23-4.08-10.23-8.88V3.38h6.05v5.13c0,1.9,1.84,3.47,4.14,3.47h.04V3.38h6.05V22.65Z"/>
        <path class="green" d="M161.04,25.67V3.38h13.72c1.98,0,3.6,1.36,3.6,3.02V25.67h-6.05V8.46h-5.22V25.67h-6.05Z"/>
        <path class="green" d="M198.56,3.42v5.07h-11.31v12.11h11.31v5.07h-13.76c-1.98,0-3.57-1.33-3.57-2.99V6.44c0-1.69,1.55-3.02,3.57-3.02h13.76Z"/>
    </g>
    <path class="gradient" d="M132.91,10.69v-2.23h-5.19v2.6l11.27,3.99v7.64c0,1.66-1.58,2.99-3.57,2.99h-10.15c-1.98,0-3.6-1.36-3.6-3.02v-4.29h6.09v2.2h5.19v-2.57l-11.27-4.02V6.4c0-1.66,1.62-3.02,3.6-3.02h10.12c1.98,0,3.6,1.36,3.6,3.02v4.29h-6.09Z"/>
</svg>