<?xml version="1.0" encoding="UTF-8"?><svg id="Layer_1" xmlns="http://www.w3.org/2000/svg" xmlns:xlink="http://www.w3.org/1999/xlink" viewBox="0 0 200 26"><defs><style>.cls-1{fill:#19a7d8;}.cls-1,.cls-2{font-family:HuXiaoBo-NanShen, HuXiaoBo-NanShen;font-size:23.82px;}.cls-2{fill:#12e359;}.cls-3{fill:url(#linear-gradient);}</style><linearGradient id="linear-gradient" x1="80" y1="13.05" x2="144" y2="13.05" gradientUnits="userSpaceOnUse"><stop offset="0" stop-color="#19a7d8"/><stop offset="0.1" stop-color="#18adcb"/><stop offset="0.2" stop-color="#17b9b2"/><stop offset="0.3" stop-color="#16c599"/><stop offset="0.5" stop-color="#14d17f"/><stop offset="0.7" stop-color="#13dd66"/><stop offset="1" stop-color="#12e359"/></linearGradient></defs><g><text class="cls-1" transform="translate(0 18.76) scale(1.68 1)"><tspan x="0" y="0">维迈</tspan></text><text class="cls-1" transform="translate(0 18.76) scale(1.68 1)"><tspan x="0" y="0">维迈</tspan></text></g><text class="cls-2" transform="translate(120 18.85) scale(1.68 1)"><tspan x="0" y="0">互联</tspan></text><path class="cls-3" d="M112.44,22.88l-.48-1.12-26.4,.91c-.53,.02-.98-.04-1.34-.15-.36-.12-.64-.28-.84-.49-.2-.21-.31-.45-.34-.71-.03-.27,.03-.55,.16-.83l4.32-9.1h-5.48v-1.33h35.92v1.33h-24.12l-4.44,9.31c-.05,.13-.04,.23,.04,.32,.08,.09,.23,.12,.44,.11l21.52-.69-3.08-7.15h6.32l4.12,9.6h-6.32Zm4.12-20.66h-33.08V.89h33.08v1.33Z"/></svg>